# Wavefront .obj file for cabin
mtllib cabin.mtl
o cabin

v -1.000000 0.000000 -1.250000
v 1.000000 0.000000 -1.250000
v 1.000000 1.800000 -1.250000
v -1.000000 1.800000 -1.250000
v -1.000000 0.000000 1.250000
v 1.000000 0.000000 1.250000
v 1.000000 1.800000 1.250000
v -1.000000 1.800000 1.250000
v -1.200000 1.800000 -1.450000
v 1.200000 1.800000 -1.450000
v 1.200000 1.800000 1.450000
v -1.200000 1.800000 1.450000
v 0.000000 2.800000 -1.450000
v 0.000000 2.800000 1.450000
v -0.300000 0.000000 1.270000
v 0.300000 0.000000 1.270000
v 0.300000 1.100000 1.270000
v -0.300000 1.100000 1.270000

usemtl WallMaterial
s off
f 1 2 3 4
f 6 5 8 7
f 5 1 4 8
f 2 6 7 3
f 1 5 6 2

usemtl RoofMaterial
s off
f 9 10 13
f 11 12 14
f 10 11 14 13
f 12 9 13 14

usemtl DoorMaterial
s off
f 15 16 17 18

