# Wavefront .obj file for pine_tree
mtllib pine_tree.mtl
o pine_tree

v 0.300000 0.000000 0.000000
v 0.187047 0.000000 0.234549
v -0.066756 0.000000 0.292478
v -0.270291 0.000000 0.130165
v -0.270291 0.000000 -0.130165
v -0.066756 0.000000 -0.292478
v 0.187047 0.000000 -0.234549
v 0.200000 2.000000 0.000000
v 0.124698 2.000000 0.156366
v -0.044504 2.000000 0.194986
v -0.180194 2.000000 0.086777
v -0.180194 2.000000 -0.086777
v -0.044504 2.000000 -0.194986
v 0.124698 2.000000 -0.156366
v 1.400000 1.500000 0.000000
v 0.872886 1.500000 1.094564
v -0.311529 1.500000 1.364899
v -1.261356 1.500000 0.607437
v -1.261356 1.500000 -0.607437
v -0.311529 1.500000 -1.364899
v 0.872886 1.500000 -1.094564
v 0.000000 3.100000 0.000000
v 1.070233 2.500000 0.216947
v 0.497663 2.500000 0.972006
v -0.449657 2.500000 0.995125
v -1.058376 2.500000 0.268894
v -0.870117 2.500000 -0.659819
v -0.026642 2.500000 -1.091675
v 0.836895 2.500000 -0.701477
v 0.000000 4.100000 0.000000
v 0.722112 3.500000 0.305304
v 0.211533 3.500000 0.754924
v -0.458334 3.500000 0.636070
v -0.783067 3.500000 0.038243
v -0.518134 3.500000 -0.588382
v 0.136964 3.500000 -0.771943
v 0.688926 3.500000 -0.374216
v 0.000000 5.100000 0.000000

vn -0.900056 -0.045003 -0.433444
vn -0.900056 -0.045003 -0.433444
vn -0.222295 -0.045003 -0.973940
vn -0.222295 -0.045003 -0.973940
vn 0.622858 -0.045003 -0.781039
vn 0.622858 -0.045003 -0.781039
vn 0.998987 -0.045003 -0.000000
vn 0.998987 -0.045003 0.000000
vn 0.622858 -0.045003 0.781039
vn 0.622858 -0.045003 0.781039
vn -0.222295 -0.045003 0.973940
vn -0.222295 -0.045003 0.973940
vn -0.900056 -0.045003 0.433444
vn -0.900056 -0.045003 0.433444
vn 0.000000 1.000000 0.000000
vn 0.000000 1.000000 0.000000
vn 0.000000 1.000000 0.000000
vn 0.000000 1.000000 -0.000000
vn 0.000000 1.000000 0.000000
vn -0.707542 -0.619099 -0.340734
vn -0.174748 -0.619099 -0.765623
vn 0.489634 -0.619099 -0.613982
vn 0.785313 -0.619099 -0.000000
vn 0.489634 -0.619099 0.613982
vn -0.174748 -0.619099 0.765623
vn -0.707542 -0.619099 0.340734
vn 0.000000 1.000000 0.000000
vn 0.000000 1.000000 0.000000
vn 0.000000 1.000000 0.000000
vn 0.000000 1.000000 -0.000000
vn 0.000000 1.000000 0.000000
vn -0.678753 -0.523805 -0.514706
vn -0.020782 -0.523805 -0.851585
vn 0.652838 -0.523805 -0.547203
vn 0.834858 -0.523805 0.169234
vn 0.388213 -0.523805 0.758234
vn -0.350765 -0.523805 0.776268
vn -0.825609 -0.523805 0.209757
vn 0.000000 1.000000 0.000000
vn 0.000000 1.000000 0.000000
vn 0.000000 1.000000 0.000000
vn 0.000000 1.000000 0.000000
vn 0.000000 1.000000 -0.000000
vn -0.604589 -0.403869 -0.686558
vn 0.159818 -0.403869 -0.900749
vn 0.803879 -0.403869 -0.436657
vn 0.842602 -0.403869 0.356247
vn 0.246829 -0.403869 0.880889
vn -0.534811 -0.403869 0.742204
vn -0.913728 -0.403869 0.044624
vn 0.000000 1.000000 0.000000
vn 0.000000 1.000000 0.000000
vn 0.000000 1.000000 0.000000
vn 0.000000 1.000000 0.000000
vn 0.000000 1.000000 -0.000000

usemtl TrunkMaterial
s off
f 1//1 2//1 9//1
f 1//2 9//2 8//2
f 2//3 3//3 10//3
f 2//4 10//4 9//4
f 3//5 4//5 11//5
f 3//6 11//6 10//6
f 4//7 5//7 12//7
f 4//8 12//8 11//8
f 5//9 6//9 13//9
f 5//10 13//10 12//10
f 6//11 7//11 14//11
f 6//12 14//12 13//12
f 7//13 1//13 8//13
f 7//14 8//14 14//14
f 7//15 6//15 5//15
f 7//16 5//16 4//16
f 7//17 4//17 3//17
f 7//18 3//18 2//18
f 7//19 2//19 1//19

usemtl FoliageMaterial
s off
f 15//20 16//20 22//20
f 16//21 17//21 22//21
f 17//22 18//22 22//22
f 18//23 19//23 22//23
f 19//24 20//24 22//24
f 20//25 21//25 22//25
f 21//26 15//26 22//26
f 21//27 20//27 19//27
f 21//28 19//28 18//28
f 21//29 18//29 17//29
f 21//30 17//30 16//30
f 21//31 16//31 15//31
f 23//32 24//32 30//32
f 24//33 25//33 30//33
f 25//34 26//34 30//34
f 26//35 27//35 30//35
f 27//36 28//36 30//36
f 28//37 29//37 30//37
f 29//38 23//38 30//38
f 29//39 28//39 27//39
f 29//40 27//40 26//40
f 29//41 26//41 25//41
f 29//42 25//42 24//42
f 29//43 24//43 23//43
f 31//44 32//44 38//44
f 32//45 33//45 38//45
f 33//46 34//46 38//46
f 34//47 35//47 38//47
f 35//48 36//48 38//48
f 36//49 37//49 38//49
f 37//50 31//50 38//50
f 37//51 36//51 35//51
f 37//52 35//52 34//52
f 37//53 34//53 33//53
f 37//54 33//54 32//54
f 37//55 32//55 31//55

